<svg xmlns="http://www.w3.org/2000/svg" class="h-64 w-64 text-blue-800 opacity-80" viewBox="0 0 24 24" fill="none">
                                <path d="M12 14C13.1046 14 14 13.1046 14 12C14 10.8954 13.1046 10 12 10C10.8954 10 10 10.8954 10 12C10 13.1046 10.8954 14 12 14Z" fill="currentColor"></path>
                                <path d="M19 14C20.1046 14 21 13.1046 21 12C21 10.8954 20.1046 10 19 10C17.8954 10 17 10.8954 17 12C17 13.1046 17.8954 14 19 14Z" fill="currentColor" fill-opacity="0.4"></path>
                                <path d="M5 14C6.10457 14 7 13.1046 7 12C7 10.8954 6.10457 10 5 10C3.89543 10 3 10.8954 3 12C3 13.1046 3.89543 14 5 14Z" fill="currentColor" fill-opacity="0.4"></path>
                                <path d="M12 7C13.1046 7 14 6.10457 14 5C14 3.89543 13.1046 3 12 3C10.8954 3 10 3.89543 10 5C10 6.10457 10.8954 7 12 7Z" fill="currentColor" fill-opacity="0.4"></path>
                                <path d="M12 21C13.1046 21 14 20.1046 14 19C14 17.8954 13.1046 17 12 17C10.8954 17 10 17.8954 10 19C10 20.1046 10.8954 21 12 21Z" fill="currentColor" fill-opacity="0.4"></path>
                                <path d="M16.9497 8.05025C18.0543 8.05025 18.9497 7.15482 18.9497 6.05025C18.9497 4.94568 18.0543 4.05025 16.9497 4.05025C15.8452 4.05025 14.9497 4.94568 14.9497 6.05025C14.9497 7.15482 15.8452 8.05025 16.9497 8.05025Z" fill="currentColor" fill-opacity="0.7"></path>
                                <path d="M7.05025 8.05025C8.15482 8.05025 9.05025 7.15482 9.05025 6.05025C9.05025 4.94568 8.15482 4.05025 7.05025 4.05025C5.94568 4.05025 5.05025 4.94568 5.05025 6.05025C5.05025 7.15482 5.94568 8.05025 7.05025 8.05025Z" fill="currentColor" fill-opacity="0.7"></path>
                                <path d="M16.9497 19.9497C18.0543 19.9497 18.9497 19.0543 18.9497 17.9497C18.9497 16.8452 18.0543 15.9497 16.9497 15.9497C15.8452 15.9497 14.9497 16.8452 14.9497 17.9497C14.9497 19.0543 15.8452 19.9497 16.9497 19.9497Z" fill="currentColor" fill-opacity="0.7"></path>
                                <path d="M7.05025 19.9497C8.15482 19.9497 9.05025 19.0543 9.05025 17.9497C9.05025 16.8452 8.15482 15.9497 7.05025 15.9497C5.94568 15.9497 5.05025 16.8452 5.05025 17.9497C5.05025 19.0543 5.94568 19.9497 7.05025 19.9497Z" fill="currentColor" fill-opacity="0.7"></path>
                            </svg>